<svg xmlns="http://www.w3.org/2000/svg" xmlns:xlink="http://www.w3.org/1999/xlink" id="Capa_1" x="0px" y="0px" viewBox="0 0 300 300" style="enable-background:new 0 0 300 300;" xml:space="preserve"><g>	<path d="M279.6,225.6c-2.6,2.6-4.5,4.6-6.5,6.6c-0.3-0.2-0.6-0.3-0.8-0.4c-10.3-10.2-20.6-20.4-30.7-30.8c-2.6-2.7-4.3-6.3-6.3-9.6  c-4.6-7.2-9.2-14.5-14-22c-3.6,3.6-6.9,6.9-10.2,10.3c-0.4,0.4-0.3,1.3-0.2,1.9c0.2,0.6,0.7,1.1,1,1.6c4.7,7,4.7,12.7,0.3,17.6  c-4.4,4.8-10.5,5.2-17.8,1c-5.4-3.1-10.7-6.2-16.1-9.1c-1.2-0.7-2.6-1.2-3.9-1.2c-2.3,0-4,1.3-4.8,3.6c-0.8,2.3-0.3,4.4,1.6,5.8  c7.4,5.6,14.6,11.3,22.4,16.4c2.9,1.9,6.8,2.1,10.3,3c0.6,0.2,1.3,0,2,0c14.4-0.1,13.4-0.6,23.7,9.8c15.8,15.9,31.7,31.7,47.6,47.6  c0.7,0.7,1.4,1.5,2.2,2.3c-2.2,2.1-4.2,4-6.5,6.1c-9.1-9.1-18.3-18.4-27.7-27.9c-0.3,2.3-0.4,4-0.8,5.7c-1.4,5.9-6.5,10-12.5,10.2  c-1,0-2.1,0-3.1,0c-51.8,0-103.6,0-155.3,0c-1.1,0-2.2,0-3.5,0c0,3,0,5.8,0,8.8c-3,0-5.9,0-8.9,0c0-0.9-0.1-1.8-0.1-2.7  c0-14,0-28,0-42.1c0-9.7,3.2-18.1,10-25.1c5.4-5.6,8.2-12.2,8-20c-0.1-3.9,1.2-7.3,3.7-10.3c3.9-4.6,7.7-9.2,11.5-13.8  c3-3.7,2.9-7.7-0.4-10.4c-3.1-2.7-6.9-2.3-10.1,1.2c-9.5,10.4-19,20.9-28.5,31.3c-3.6,3.9-7,5-10.9,3.4c-3.9-1.5-5.7-4.7-5.7-9.9  c0-18.3,0-36.6,0-55c0-1,0-2,0-3.3c-5.8,3.3-9,7.7-9,14.3c0.1,46.3,0,92.6,0,138.8c0,1.1,0,2.2,0,3.5c-3,0-5.8,0-9,0  c0-0.9,0-1.9,0-2.9c0-46.4,0-92.7,0-139.1c0-8.5,2.9-15.7,10.1-20c6.5-3.9,8.2-8.8,8-16.2c-0.5-25.2-0.2-50.5-0.2-75.7  c0-9.7,5.4-15.1,15.1-15.1c58.8,0,117.6,0,176.4,0c9.5,0,14.9,5.4,14.9,15c0,25.2,0,50.5,0,75.7c0,1.1,0,2.2,0,3.2  c2.4,0,4.7-0.3,6.8,0.1c5.4,0.9,9.2,4.1,10.9,9.3c1.8,5.3,0.6,10.2-3.3,14.3c-4.2,4.4-8.6,8.6-12.8,13c-0.9,1-1.6,2.5-1.6,3.8  c-0.1,12.2,0.1,24.3-0.2,36.5c-0.1,4.9,1.8,8.5,4.9,11.6c9.1,9.2,18.2,18.3,27.4,27.4C277.7,224.4,278.6,224.9,279.6,225.6z   M101,108.2c0,3.2,0,6,0,8.9c-2.8,0-5.4,0-8,0c-3.5,0.1-5.2,1.7-5.2,5.2c0,5.5,0,11,0,16.5c0,3.5,1.7,5.2,5.2,5.2  c5.5,0,11,0,16.5,0c3.5,0,5.1-1.7,5.2-5.2c0-2.7,0-5.4,0-8.1c3.1,0,6,0,9,0c0,2.8,0,5.4,0,8c-0.1,8.6-5.7,14.2-14.3,14.2  c-2.6,0-5.3,0-8.5,0c3.4,4.2,4.6,8.5,4.1,13.5c1.7,0,3.2,0,4.7,0c8.2,0.1,13.9,5.8,13.9,14c0,5.6,0,11.2,0,16.8  c-0.1,8.4-5.7,14-14.2,14c-4.7,0-9.4,0.2-14-0.1c-3.6-0.2-7.3-0.9-11.1-1.4c-1.6,2.2-3.2,5.3-5.6,7.7c-8.6,8.2-9.7,18.4-8.6,29.5  c49.2,0,98.4,0,147.8,0c0-4.6,0-9.1,0-13.6c0-3.1-1-4.1-4.2-4.2c-2.7-0.1-5.4-0.1-8.1,0c-7.8,0.1-14.7-2.2-20.8-6.9  c-3-2.3-6.1-4.6-9.4-7c-4.5,4.5-8.9,8.9-13.3,13.3c-3.2,3.2-5.9,7.5-9.7,9.1c-3.8,1.6-8.8,0.4-13.3,0.5c-2.1,0-4.2,0-6.4,0  c0-3,0-5.5,0-8c0-3.9-1-8.3,0.4-11.6c1.4-3.4,5.2-5.7,7.9-8.5c3.8-3.8,7.6-7.6,11.4-11.4c-0.8-1.2-1.6-1.9-1.9-2.9  c-0.8-2.3-2.3-2.7-4.5-2.5c-2.9,0.2-5.7,0-8.7,0c0-3.1,0-5.9,0-9c2.9,0,5.6-0.2,8.2,0.1c2.8,0.3,4.2-0.6,5.2-3.4  c3.5-9.4,7.3-18.6,11-27.8c2.1-5.2,5.8-8.9,11.4-9c10.4-0.3,20.7,0.2,31.1,0.3c1.1,0,2.5-0.5,3.3-1.2c2.8-2.6,5.4-5.4,8.2-8  c1.5-1.4,2.1-2.8,2.1-4.9c-0.1-28.8,0-57.6,0-86.4c0-1,0-2,0-3c-51,0-101.7,0-152.3,0c0,41.7,0,83.2,0,125  c5.7-5.9,11.1-11.6,16.2-16.9c-0.9-2.9-2.6-5.9-2.8-9c-0.4-6.3-0.3-12.7-0.1-19.1c0.2-6.7,5.6-12.3,12.2-12.8  C94.3,108,97.5,108.2,101,108.2z M56.3,32c57,0,113.7,0,170.6,0c0,30.6,0,61,0,92.3c2.7-2.8,4.8-5.1,7.1-7.3  c1.3-1.3,1.8-2.6,1.8-4.4c-0.1-27.9,0-55.7,0-83.6c0-4.9-1.4-6.3-6.4-6.3c-58.6,0-117.2,0-175.8,0c-4.9,0-6.3,1.3-6.3,6.3  c0,51.2,0,102.5,0,153.7c0,0.9,0,1.8,0,3.4c2.7-3,4.8-5.4,7.1-7.7c1.4-1.4,1.9-2.9,1.9-5c-0.1-46,0-92,0-138  C56.3,34.5,56.3,33.4,56.3,32z M69.9,265.2c1.1,0,2,0,2.8,0c52.3,0,104.6,0,157,0c0.5,0,0.9,0,1.4,0c3-0.2,4.6-1.8,4.7-4.8  c0.1-3.3,0-6.5,0-9.8c0-0.5,0-1.3-0.3-1.6c-2.7-2.8-5.5-5.6-8.8-8.9c0,5.9,0,10.9,0,16.2c-52.4,0-104.5,0-156.8,0  C69.9,259.3,69.9,262.1,69.9,265.2z M180.8,183.7c2,1.1,4.2,2.2,6.3,3.6c1.7,1.2,2.8,0.9,4.2-0.6c15.1-15.2,30.2-30.3,45.3-45.4  c0.6-0.6,1.1-1.2,1.4-1.5c-2.3-2.5-4.5-4.7-6.5-6.9C214.6,149.9,197.7,166.8,180.8,183.7z M101,202.4c3,0,6,0.1,9,0  c2.8-0.1,4.6-1.8,4.6-4.6c0.1-5.9,0.2-11.8-0.1-17.6c-0.1-1.4-1.2-3.7-2.1-3.8c-4-0.6-8.1-0.6-12.1-0.6c-0.4,0-0.9,0.9-1.3,1.4  c-2.4,2.9-4.6,6-7.2,8.6c-3.5,3.4-4.5,7.2-4.1,11.9c0.3,3.1,1.8,4.8,4.9,4.9C95.4,202.4,98.2,202.4,101,202.4z M197.4,153  c-7.8,0-15.6-0.1-23.3,0.1c-1.3,0-3.2,1.6-3.7,2.9c-4.3,10.3-8.5,20.7-12.5,31.2c-0.5,1.4,0.1,3.1,0.1,5.2  C171.5,178.9,184.3,166.1,197.4,153z M142,229.5c2.3-0.3,5.6,0.3,7.2-1.1c6.5-5.8,12.5-12.2,18.5-18.2c-2.3-2.5-4.5-4.9-6.9-7.4  c-5,5-9.8,10.3-15.1,15.1C142.3,221,140.6,224.3,142,229.5z M244.8,133c2.8-2.8,5.7-5.4,8.3-8.3c1.8-2,1.5-4.7-0.3-6.6  c-1.7-1.8-4.5-2.3-6.3-0.6c-3,2.7-5.6,5.8-8.3,8.7C240.3,128.4,242.5,130.6,244.8,133z M235.6,175.2c0-7.1,0-13.3,0-19.6  c-2.5,2.6-4.9,5.1-7.5,7.8c0,0,0.2,0.4,0.4,0.8C230.8,167.6,233,171,235.6,175.2z M197.7,193.1c4.2,3,6.4,3.4,8,1.5  c1.7-1.9,1-4.2-2.2-7.3C201.6,189.2,199.7,191.1,197.7,193.1z"/>	<path d="M101.1,49.8c0,3,0,5.8,0,9c-2.7,0-5.3,0-8,0c-3.7,0-5.3,1.7-5.3,5.3c0,5.4,0,10.8,0,16.3c0,3.7,1.7,5.3,5.3,5.3  c5.4,0,10.8,0,16.3,0c3.7,0,5.3-1.7,5.3-5.3c0-2.5,0.1-5,0.1-7.6c0-0.1,0.1-0.2,0.2-0.4c2.7,0,5.6,0,8.9,0c-0.2,4.1,0,8.1-0.7,12  c-1.1,6-6.4,10.1-12.4,10.2c-6.3,0.1-12.5,0.1-18.8,0c-7.2-0.1-12.9-5.9-13.1-13.1c-0.1-6.2-0.1-12.3,0-18.5  C78.9,55.7,84.7,50,92,49.8C95,49.7,98,49.8,101.1,49.8z"/>	<path d="M204.1,58.7c-22.4,0-44.5,0-66.8,0c0-2.9,0-5.7,0-8.7c22.2,0,44.5,0,66.8,0C204.1,52.9,204.1,55.8,204.1,58.7z"/>	<path d="M204.3,108.3c0,3,0,5.7,0,8.6c-22.3,0-44.5,0-66.9,0c0-2.8,0-5.6,0-8.6C159.5,108.3,181.8,108.3,204.3,108.3z"/>	<path d="M137.2,76.5c0-3,0-5.7,0-8.6c17.8,0,35.5,0,53.5,0c0,2.8,0,5.6,0,8.6C173,76.5,155.2,76.5,137.2,76.5z"/>	<path d="M137.3,126.1c14.9,0,29.5,0,44.4,0c0,2.9,0,5.7,0,8.7c-14.7,0-29.5,0-44.4,0C137.3,131.9,137.3,129.1,137.3,126.1z"/>	<path d="M99.3,79.2c-1.6-1.6-3.5-3.5-5.4-5.4c7.5-7.4,14.8-14.8,22.4-22.2c1.6,1.8,3.5,3.8,5.1,5.5  C114.3,64.3,106.9,71.6,99.3,79.2z"/>	<path d="M99.6,137.7c-1.7-1.8-3.6-3.8-5.2-5.6c7.2-7.2,14.5-14.5,22-21.9c1.5,1.7,3.3,3.8,5,5.7C114.4,122.9,107,130.3,99.6,137.7z  "/></g><g/><g/><g/><g/><g/><g/></svg>