<svg xmlns="http://www.w3.org/2000/svg" xmlns:xlink="http://www.w3.org/1999/xlink" id="Capa_1" x="0px" y="0px" viewBox="0 0 300 300" style="enable-background:new 0 0 300 300;" xml:space="preserve"><g>	<path d="M39.9,286.1c-2.6-1.2-3.4-3.3-3.4-6c0-80.7,0-161.4,0-242.1c0-4.5,1.6-6,6.2-6c6.7,0,13.5,0,20.2,0c0.2,0,0.3-0.1,0.8-0.3  c0-3.8,0-7.8,0-11.7c0-4.5,1.5-6.1,6.1-6.1c41.4,0,82.8,0,124.1,0.1c1.8,0,4.1,0.9,5.4,2.2c20.7,20.5,41.3,41.2,61.9,61.7  c1.8,1.8,2.1,3.9,2.1,6.3c0,44.8,0,89.7,0,134.5c0,11.2,0,22.3,0,33.5c0,5.5-1.3,6.8-6.9,6.8c-6.6,0-13.3,0-20.3,0  c0,2.9,0,5.6,0,8.3c0,4.3-0.1,8.5,0,12.8c0.1,2.8-0.9,4.8-3.3,6.1C168.6,286.1,104.3,286.1,39.9,286.1z M73,249.7  c60.6,0,120.9,0,181.2,0c0-54.4,0-108.7,0-163.2c-1.2,0-2.3,0-3.4,0c-17.8,0-35.6,0-53.4,0c-5.1,0-6.5-1.4-6.5-6.5  c0-17.9,0-35.8,0-53.7c0-1,0-2.1,0-3.2c-39.5,0-78.7,0-117.9,0C73,98.7,73,174.1,73,249.7z M227,258.9c-1.4,0-2.5,0-3.7,0  c-50.8,0-101.6,0-152.3,0c-6,0-7.2-1.2-7.2-7.1c0-69,0-138.1,0-207.1c0-1.1,0-2.3,0-3.5c-6.2,0-12.1,0-18,0c0,78.6,0,157.1,0,235.7  c60.5,0,120.8,0,181.2,0C227,270.9,227,265.1,227,258.9z M246.5,77.3C231,61.8,215.3,46.2,200.1,31c0,14.9,0,30.5,0,46.3  C215.9,77.3,231.4,77.3,246.5,77.3z"/>	<path d="M177.1,209c17.5,0,34.9,0,52.4,0c0.9,0,1.8,0,2.7,0.1c2.3,0.3,3.9,2.1,4,4.3c0.1,2.3-1.5,4.2-3.9,4.6  c-0.9,0.1-1.8,0.1-2.7,0.1c-34.9,0-69.8,0-104.7,0c-0.2,0-0.4,0-0.5,0c-3.8,0-6-1.6-6-4.5c0-2.9,2.2-4.6,5.9-4.6  C141.9,209,159.5,209,177.1,209z"/>	<path d="M177.4,154.6c17.2,0,34.4,0,51.6,0c1,0,2,0,2.9,0.1c2.6,0.3,4.2,2,4.3,4.3c0.1,2.4-1.6,4.2-4.2,4.6  c-0.8,0.1-1.6,0.1-2.4,0.1c-34.9,0-69.8,0-104.7,0c-0.2,0-0.4,0-0.5,0c-3.8-0.1-6-1.7-6-4.5c0-2.9,2.1-4.6,5.9-4.6  C142,154.5,159.7,154.6,177.4,154.6z"/>	<path d="M177.4,181.8c17.3,0,34.6,0,51.8,0c1,0,2,0,2.9,0.1c2.3,0.3,3.7,1.7,4,4c0.3,2.2-1.1,4.1-3.4,4.7c-0.9,0.2-1.9,0.3-2.9,0.3  c-35.1,0-70.2,0-105.3,0c-1,0-2.1-0.1-3.1-0.4c-2.2-0.6-3.2-2.3-3.1-4.4c0.1-2.3,1.4-3.8,3.8-4.2c1-0.2,2.1-0.1,3.2-0.1  C142.7,181.8,160,181.8,177.4,181.8z"/>	<path d="M177.2,109.1c-17.4,0-34.7,0-52.1,0c-0.9,0-1.8,0-2.7-0.1c-2.3-0.2-4-1.9-4.1-4.1c-0.2-2.2,1.2-4.1,3.5-4.6  c0.8-0.2,1.8-0.2,2.6-0.2c35.2,0,70.4,0,105.5,0c1,0,2.2,0.1,3.1,0.4c2.1,0.7,3.1,2.3,3,4.5c-0.2,2.2-1.5,3.6-3.6,4  c-0.9,0.2-1.9,0.1-2.9,0.1C212.1,109.1,194.7,109.1,177.2,109.1z"/>	<path d="M177.1,136.4c-17.4,0-34.7,0-52.1,0c-4.5,0-6.8-1.5-6.7-4.6c0.1-3,2.3-4.5,6.8-4.5c34.7,0,69.5,0,104.2,0  c1.2,0,2.5,0,3.7,0.4c2.1,0.6,3.2,2.2,3.1,4.4c-0.1,2.2-1.3,3.7-3.5,4.1c-1.1,0.2-2.3,0.2-3.4,0.2  C211.8,136.4,194.5,136.4,177.1,136.4z"/>	<path d="M127.3,72.6c0,4.3,0,8.7,0,13c-0.1,3.7-1.7,5.3-5.4,5.3c-8.5,0-17,0-25.5,0c-3.6,0-5.4-1.7-5.4-5.4c0-8.5-0.1-17,0-25.5  c0-3.7,1.7-5.3,5.4-5.3c8.5,0,17,0,25.5,0c3.7,0,5.3,1.6,5.3,5.4C127.3,64.3,127.3,68.5,127.3,72.6z M118,81.8c0-6.1,0-11.9,0-17.8  c-6.1,0-11.9,0-17.8,0c0,6,0,11.8,0,17.8C106.2,81.8,112,81.8,118,81.8z"/>	<path d="M100,109.1c-1.6,0-3.2,0.1-4.8,0c-2.5-0.2-3.8-1.7-4.1-4.1c-0.3-2.1,1.2-4.4,3.5-4.6c3.7-0.3,7.4-0.3,11.1,0  c2.3,0.2,3.6,2.4,3.3,4.7c-0.3,2.3-1.7,3.7-4,3.9C103.4,109.2,101.7,109.1,100,109.1C100,109.1,100,109.1,100,109.1z"/>	<path d="M100.1,191c-2-0.1-3.8-0.1-5.5-0.4c-2.3-0.4-3.8-2.5-3.5-4.6c0.3-2.4,1.6-4,4.1-4.1c3.3-0.1,6.6-0.1,9.8,0  c2.3,0.1,3.7,1.6,4,3.9c0.3,2.2-1,4.2-3.3,4.7C103.8,190.9,101.9,190.9,100.1,191z"/>	<path d="M99.9,218c-1.5,0-3,0.1-4.5,0c-2.5-0.2-4.4-2.2-4.4-4.5c0-2.3,1.9-4.3,4.4-4.4c3.1-0.1,6.2-0.1,9.3,0  c2.6,0.1,4.3,2.1,4.3,4.5c0,2.4-1.8,4.3-4.4,4.5C103.1,218.1,101.5,218,99.9,218z"/>	<path d="M100.2,136.3c-1.7,0-3.4,0.1-5,0c-2.5-0.2-3.8-1.8-4-4.2c-0.2-2.1,1.4-4.3,3.7-4.5c3.6-0.3,7.2-0.3,10.8,0  c2.3,0.2,3.7,2.3,3.5,4.6c-0.2,2.3-1.5,3.8-3.9,4C103.5,136.4,101.8,136.2,100.2,136.3C100.2,136.2,100.2,136.3,100.2,136.3z"/>	<path d="M100.3,154.7c1.6,0,3.2-0.1,4.8,0c2.5,0.2,3.8,1.8,4,4.2c0.2,2.2-1.3,4.3-3.6,4.4c-3.5,0.3-7.1,0.3-10.6,0  c-2.3-0.2-3.8-2.3-3.8-4.4c0-2.2,1.6-3.9,4-4.3c0.3,0,0.5-0.1,0.8-0.1C97.3,154.6,98.8,154.6,100.3,154.7  C100.3,154.6,100.3,154.6,100.3,154.7z"/></g><g/><g/><g/><g/><g/><g/></svg>