<svg xmlns="http://www.w3.org/2000/svg" xmlns:xlink="http://www.w3.org/1999/xlink" id="Capa_1" x="0px" y="0px" viewBox="0 0 300 300" style="enable-background:new 0 0 300 300;" xml:space="preserve"><g>	<path d="M6,17.2c1.4-1.3,2.5-3.1,4.2-3.8c3.5-1.6,7.3,1,7.8,4.9c0.1,1.2,0.1,2.4,0.1,3.7c0,83,0,166,0,248.9c0,1.3,0,2.6,0,4.2  c1.6,0,2.9,0,4.2,0c87.7,0,175.3,0,263,0c1.5,0,3,0,4.5,0.4c2.6,0.6,4.3,2.9,4.4,5.5c0.1,2.7-1.7,5.1-4.4,5.8  c-1.2,0.3-2.4,0.4-3.6,0.4c-90.7,0-181.3,0-272,0.1c-3.6,0-6.3-1.1-8-4.4C6,194.2,6,105.7,6,17.2z"/>	<path d="M254.1,172.9c0,28.8,0,57.6,0,86.3c0,6.2-2,8.2-8.3,8.2c-9.6,0-19.1,0-28.7,0c-5.7,0-7.9-2.1-7.9-7.8  c0-57.8,0-115.7,0-173.5c0-5.8,2-7.8,7.8-7.8c9.7,0,19.5,0,29.2,0c5.9,0,7.8,1.9,7.8,8C254.1,115.2,254.1,144.1,254.1,172.9z   M241.9,255.2c0-55.1,0-109.9,0-164.7c-6.9,0-13.6,0-20.4,0c0,55,0,109.7,0,164.7C228.4,255.2,235.1,255.2,241.9,255.2z"/>	<path d="M220.9,32.3c-3,0.3-5.6,0.6-8.2,0.8c-1.1,0.1-2.2,0.3-3.4,0.3c-3.4,0-6.1-2.2-6.4-5.5c-0.3-3.1,2-6,5.4-6.4  c6.7-0.8,13.4-1.5,20.1-2.2c2-0.2,3.9-0.5,5.9-0.6c3.8-0.2,6.3,1.9,6.7,5.7c1,8.5,1.9,16.9,2.7,25.4c0.3,3.5-1.8,6.2-5,6.7  c-3.4,0.5-6.2-1.4-6.8-5.1c-0.6-3.7-0.9-7.4-1.4-11.8c-1.3,1.5-2.2,2.6-3,3.6c-19.4,23-38.9,45.9-58.2,69  c-3.1,3.7-6.2,4.7-10.8,3.3c-12.5-3.8-25.2-7.3-37.8-10.9c-1.8-0.5-3.1-0.2-4.6,0.9c-19.6,15.7-39.2,31.4-58.8,47.1  c-0.7,0.6-1.5,1.2-2.2,1.7c-2.8,2-6.3,1.7-8.4-0.8c-2.2-2.6-1.9-6.2,0.8-8.5c4.8-4,9.8-7.9,14.7-11.8c16.5-13.2,33-26.3,49.4-39.6  c2.7-2.2,5.2-2.8,8.5-1.8c12.7,3.7,25.4,7.3,38,11c1.7,0.5,2.8,0.4,4.1-1.1c18.9-22.5,37.9-44.8,56.8-67.3  C219.7,34,220.2,33.3,220.9,32.3z"/>	<path d="M91.3,205.6c0-17.9,0-35.8,0-53.7c0-6.1,1.9-8,8.1-8c9.7,0,19.5,0,29.2,0c5.2,0,7.4,2.1,7.4,7.3c0,36.4,0,72.7,0,109.1  c0,5-2.2,7.2-7.2,7.2c-9.9,0-19.9,0-29.8,0c-5.6,0-7.7-2-7.7-7.6C91.3,241.7,91.3,223.6,91.3,205.6z M123.9,255.2c0-33.1,0-66,0-99  c-6.9,0-13.7,0-20.5,0c0,33.1,0,66.1,0,99C110.4,255.2,117.1,255.2,123.9,255.2z"/>	<path d="M195.1,222c0,12.7,0,25.3,0,38c0,5.2-2.2,7.4-7.3,7.4c-10,0-20.1,0-30.1,0c-5.1,0-7.3-2.2-7.3-7.1c0-25.5,0-51,0-76.5  c0-4.9,2.2-7.1,7.1-7.1c10.2-0.1,20.4-0.1,30.7,0c4.8,0,7,2.3,7,7.1C195.1,196.5,195.1,209.3,195.1,222z M162.5,188.9  c0,22.2,0,44.2,0,66.3c6.9,0,13.6,0,20.4,0c0-22.1,0-44.1,0-66.3C176.1,188.9,169.4,188.9,162.5,188.9z"/>	<path d="M77,228.7c0,10.4,0,20.8,0,31.2c0,5.4-2.1,7.5-7.5,7.5c-9.9,0-19.9,0-29.8,0c-5.2,0-7.4-2.2-7.4-7.4c0-21,0-42,0-63  c0-5.3,2-7.2,7.4-7.2c10,0,20.1,0,30.1,0c5.1,0,7.2,2,7.2,7.1C77,207.5,77,218.1,77,228.7z M65,202c-7.1,0-13.8,0-20.6,0  c0,17.8,0,35.4,0,53.1c6.9,0,13.7,0,20.6,0C65,237.3,65,219.7,65,202z"/></g><g/><g/><g/><g/><g/><g/></svg>