<svg xmlns="http://www.w3.org/2000/svg" xmlns:xlink="http://www.w3.org/1999/xlink" id="Capa_1" x="0px" y="0px" viewBox="0 0 300 300" style="enable-background:new 0 0 300 300;" xml:space="preserve"><g>	<path d="M260.7,294c-25.7,0-51.4,0-77,0c-3.2-1.6-6.5-3.2-9.7-5c-4.6-2.6-9-5.4-13.5-8c-1.5-0.8-3.3-1.4-5-1.4  c-14.5-0.1-29,0-43.5-0.1c-1.6,0-2.5,0.4-3.4,1.8c-3.9,6.1-9.7,8.6-16.8,7.5c-2.4-0.4-4.7-1.6-7.2-2.5c-2.5,4.2-6.5,6.3-11.1,7.6  c-1.9,0-3.7,0-5.6,0c-6.1-1.8-10.8-5.3-13.1-11.6c-4.8,2.3-9.5,2.6-14.1,0.8c-4.8-1.9-7.8-5.5-9.7-10.2c-0.5,0.1-0.8,0.1-1.1,0.2  c-10.7,4.9-21.3-2.5-23.3-11.5c-0.1-0.3-0.3-0.6-0.5-0.9c0-25.7,0-51.3,0-77c1.6-3.2,3.2-6.5,4.9-9.7c2.6-4.5,5.4-8.9,8-13.5  c0.8-1.5,1.4-3.3,1.4-5c0.1-14.5,0-29,0.1-43.5c0-1.7-0.6-2.6-2-3.5c-5.9-4-8.4-9.6-7.3-16.7c0.4-2.4,1.6-4.7,2.5-7.2  C9.5,82.2,7.4,78.2,6,73.6c0-1.9,0-3.7,0-5.6c1.8-6.2,5.3-10.8,11.5-13c-4-9-1.6-19,9.5-24c-0.1-0.3-0.1-0.7-0.2-1  C21.4,18.6,30.6,5.9,43.4,6c23,0.3,45.9,0.1,68.9,0.1c3.6,0,6.8,0.8,9.9,2.7c5.8,3.5,11.5,7,17.4,10.3c1.4,0.8,3.1,1.4,4.7,1.4  c14.6,0.1,29.2,0.1,43.9,0c1,0,2.4-0.8,3-1.7c4.1-6,9.8-8.6,16.9-7.5c2.4,0.4,4.7,1.6,7.2,2.5c3.9-5.4,9.2-8.3,16.1-7.4  c6.8,0.9,11.3,5,13.9,11.4c4.7-2.3,9.4-2.6,14.1-0.7c4.8,1.9,7.8,5.5,9.7,10.1c0.5,0,0.7,0,0.8-0.1c11.7-5.7,24.5,3.9,24.2,17  c-0.4,22.8-0.1,45.5-0.1,68.3c0,3.7-0.9,7-2.8,10.1c-3.4,5.5-6.8,11-9.9,16.6c-1,1.8-1.7,4-1.7,6c-0.1,14.1,0,28.3-0.1,42.4  c0,1.9,0.4,3,2.1,4.1c3.8,2.3,6.1,5.8,7.1,10.1c1.1,4.8,0,9.3-2.6,13.3c11.2,7.9,10.6,24.2-3.6,30.5c2.1,4.5,2.5,9.1,0.7,13.8  c-1.9,4.8-5.5,7.9-10.3,9.7c0.2,0.7,0.4,1.1,0.5,1.5c3.6,9.8-1,19.4-10.9,22.7C261.9,293.4,261.3,293.7,260.7,294z M188.1,30.2  c-1.2,0-2.2,0-3.3,0c-13.1,0-26.2-0.1-39.4,0c-4.4,0-8.3-1-12-3.3c-5.2-3.3-10.5-6.5-15.9-9.5c-1.7-0.9-3.8-1.6-5.8-1.6  c-22.6-0.1-45.2-0.1-67.8-0.1c-0.9,0-1.9,0-2.8,0.1c-3.7,0.6-6.6,3.9-6.5,7.3c0.1,3.5,2.8,6.4,6.6,6.9c0.9,0.1,1.9,0.1,2.8,0.1  c6.3,0,12.6,0,18.8,0c3.3,0,5.4,2,5.4,4.8c0,2.7-2.1,4.6-5.2,4.8c-1,0.1-2.1,0-3.1,0c-9.2,0-18.4,0-27.6,0.1  c-3.7,0-6.7,2.8-7.3,6.2c-0.5,3.1,1.5,6.5,4.7,7.5c1.2,0.4,2.6,0.5,3.9,0.5c6,0,12,0,18,0c0.7,0,1.5,0,2.2,0  c2.9,0.3,4.8,2.3,4.8,4.9c-0.1,2.6-2.1,4.6-5,4.6c-9.6,0.1-19.1,0-28.7,0.1c-1.4,0-2.8,0-4.2,0.4c-4.7,1.2-6.8,6.8-4,10.7  c1.7,2.4,4.1,3.3,7.1,3.3c9.7,0,19.3,0,29,0c3.5,0,5.8,1.8,5.8,4.7c0.1,3-2.2,4.9-5.9,4.9c-8.1,0-16.1,0-24.2,0  c-4.9,0-8.1,2.8-8.2,7c-0.1,4.3,3.2,7.3,8.1,7.5c0.7,0,1.5,0,2.2,0c16.5,0,33,0,49.5,0c0.9,0,1.9,0,2.8,0.1  c3.7,0.4,5.6,4.1,3.7,7.2c-0.6,1-1.4,1.8-2.1,2.7c-3.7,4.6-7.5,9.1-11.2,13.7c-1.8,2.2-2,4.7-0.5,7.1c1.5,2.3,3.8,3.2,6.3,2.5  c1.5-0.5,2.9-1.6,4.1-2.7c14.8-14.6,29.6-29.2,44.3-43.9c4-4,8.4-6,14-5.8c4.5,0.2,8.9,0,13.1,0c0.2-3.2-0.2-6.2,0.5-8.9  c2.7-10.7,15.6-14.8,24.6-8c2.7,2,5.2,4.2,8.1,6.6C188.1,58.2,188.1,44.4,188.1,30.2z M111.7,269.9c14.3,0,28.3,0.1,42.2,0  c4.6,0,8.6,0.9,12.5,3.4c5.3,3.4,10.7,6.5,16.1,9.7c1.2,0.7,2.8,1.4,4.2,1.4c23.5,0.1,47,0.1,70.6,0c1.4,0,3-0.5,4.2-1.2  c2.8-1.5,4-4.8,3.3-7.7c-0.9-3.4-3.4-5.4-7.3-5.5c-6.7-0.1-13.3,0-20-0.1c-1.2,0-2.5-0.1-3.5-0.6c-2.1-1-2.9-2.9-2.4-5.2  c0.6-2.5,2.4-3.7,4.9-3.8c4.9-0.1,9.7,0,14.6,0c5.3,0,10.7,0.1,16-0.1c4.2-0.1,7.5-3.4,7.4-7.2c-0.1-3.9-3.1-6.8-7.3-7  c-1,0-2.1,0-3.1,0c-5.9,0-11.8,0-17.7,0c-2.2,0-4.3-0.7-4.9-2.9c-0.4-1.4-0.3-3.7,0.6-4.6c1.1-1.2,3.2-1.9,4.9-1.9  c9.6-0.2,19.3,0,29-0.1c5,0,8.3-3.1,8.2-7.3c-0.1-4-3.6-7.1-8.2-7.1c-4.8,0-9.6,0-14.3,0c-5.2,0-10.5,0.1-15.7,0  c-2.8-0.1-4.9-2.2-4.9-4.8c0-2.6,2.1-4.6,4.9-4.7c0.9,0,1.9,0,2.8,0c7.8,0,15.6,0.1,23.3,0c4-0.1,6.9-2.8,7.2-6.5  c0.3-3.8-2.3-7-6.2-7.7c-1.2-0.2-2.4-0.2-3.6-0.2c-16.7,0-33.4,0-50,0c-1,0-2.1,0.1-3.1-0.1c-3.3-0.5-5-3.9-3.5-6.8  c0.5-1,1.3-1.8,2-2.7c3.8-4.6,7.6-9.3,11.4-13.9c1.8-2.2,2.1-4.6,0.6-7.1c-1.4-2.4-3.7-3.3-6.3-2.6c-1.5,0.4-3,1.5-4.1,2.7  c-15,14.8-30,29.6-44.9,44.5c-3.6,3.6-7.7,5.5-12.8,5.3c-2.2-0.1-4.3,0-6.5,0c-2.6,0-5.1,0-7.3,0c-0.1,3.3,0.2,6.1-0.5,8.8  c-2.7,10.8-15.7,14.9-24.8,8c-2.6-2-5.1-4.1-8-6.5C111.7,241.9,111.7,255.8,111.7,269.9z M269.9,188.2c0-1.2,0-2.2,0-3.2  c0-13.3,0-26.6,0-39.9c0-4,0.9-7.5,3-10.9c3.4-5.4,6.7-10.8,9.8-16.4c1-1.7,1.6-3.8,1.6-5.8c0.1-22.6,0.1-45.1,0.1-67.7  c0-5.7-3-9.5-7.4-9.4c-4.4,0.1-7.1,3.5-7.1,9.3c0,6.5,0,12.9,0,19.4c0,2.8-1.9,4.7-4.4,4.9c-2.6,0.2-4.7-1.8-5.1-4.6  c-0.1-0.7,0-1.5,0-2.2c0-8.9,0-17.8,0-26.7c0-1,0-2.1-0.1-3.1c-0.4-3.7-3.8-6.6-7.3-6.5c-3.7,0.1-6.8,3-6.8,6.8  c-0.2,6.2-0.1,12.4-0.1,18.5c0,1,0,2.1,0,3.1c-0.2,3.1-2.2,5.2-4.9,5.1c-2.7,0-4.6-2.1-4.7-5.2c-0.1-9.4,0-18.7,0-28.1  c0-1,0-2.1-0.1-3.1c-0.5-4-3.6-6.9-7.3-6.7c-3.6,0.1-6.8,3.3-7,7.2c-0.2,4.2-0.1,8.4-0.1,12.6c0,6.1,0,12.2,0,18.3  c0,3-2.2,5.1-4.9,5.1c-2.6-0.1-4.5-2.1-4.7-5c0-0.8,0-1.7,0-2.5c0-7.8,0-15.5,0-23.3c0-4.2-2.8-7.2-6.6-7.4  c-3.9-0.3-7.1,2.4-7.7,6.6c-0.2,1.1-0.1,2.2-0.1,3.4c0,16.7,0,33.3,0,50c0,0.9,0,1.9-0.1,2.8c-0.4,3.5-4.1,5.4-7.1,3.5  c-1-0.6-1.9-1.5-2.9-2.2c-4.5-3.7-9-7.4-13.5-11c-2.3-1.8-5.2-1.9-7.3-0.4c-2.1,1.5-3,3.7-2.3,6.1c0.4,1.4,1.5,2.8,2.6,3.9  c14.6,14.8,29.2,29.7,43.9,44.3c4.2,4.2,6.3,8.8,6,14.8c-0.2,4.4,0,8.7,0,13c0.5,0.1,0.7,0.2,0.9,0.2c7.9-1.3,14,1.2,17.4,7.2  c3.4,6,2.6,12.6-2.4,18.7c-1.8,2.1-3.5,4.3-5.5,6.8C241.8,188.2,255.6,188.2,269.9,188.2z M30,111.9c0,1.2,0,2.2,0,3.3  c0,13.3,0,26.6,0,39.9c0,4-0.9,7.5-3,10.9c-3.3,5.3-6.6,10.7-9.7,16.1c-1,1.8-1.7,4-1.7,6c-0.1,22.6-0.1,45.2-0.1,67.7  c0,5.6,2.8,9.2,7.2,9.3c4.5,0.1,7.3-3.5,7.3-9.4c0-6.5,0-12.9,0.1-19.4c0-2.8,2-4.7,4.5-4.8c2.5-0.1,4.6,1.7,4.9,4.4  c0.1,0.8,0.1,1.7,0.1,2.5c0,9.4,0,18.7,0,28.1c0,4.7,3.1,8.1,7.2,8.1c4.2,0,7.1-3.2,7.1-8.1c0-6.3,0-12.6,0-18.8c0-1,0-2.1,0.3-3.1  c0.6-2.4,2.3-3.6,4.7-3.6c2.3,0,4.2,1.8,4.5,4.2c0.1,0.9,0.1,1.9,0.1,2.8c0,9.1,0,18.2,0,27.3c0,1.7,0.3,3.6,1,5.1  c1.3,2.8,4.7,4.3,7.6,3.5c3.5-0.9,5.8-3.8,5.8-7.7c0.1-9.4,0-18.7,0-28.1c0-4.8,1.6-7.2,4.7-7.2c3.2,0,4.8,2.3,4.8,7.1  c0,7.9,0,15.7,0,23.6c0,4.3,2.8,7.4,6.7,7.6c3.9,0.2,7-2.6,7.6-6.8c0.2-1.1,0.1-2.2,0.1-3.4c0-16.4,0-32.8,0-49.2  c0-0.8,0-1.7,0-2.5c0-2.2,0.7-4.2,2.8-4.7c1.6-0.3,3.9-0.2,5.1,0.8c5.4,4,10.5,8.5,15.8,12.7c2.2,1.8,4.7,2,7.1,0.5  c2.3-1.4,3.2-3.8,2.5-6.3c-0.4-1.4-1.5-2.8-2.6-3.9c-14.3-14.5-28.6-29.2-43.2-43.5c-4.8-4.7-7.2-9.8-6.7-16.5c0.3-4,0.1-8,0.1-12  c-0.7,0-0.9,0-1.2,0.1c-7.9,1.2-13.9-1.4-17.3-7.5c-3.4-6.1-2.5-12.4,2.6-18.7c1.8-2.1,3.5-4.3,5.5-6.8  C58.1,111.9,44.3,111.9,30,111.9z M152.1,92.5c-5,0-8.4-0.2-11.7,0.1c-1.7,0.2-3.7,0.9-4.9,2c-13.9,13.6-27.8,27.4-41.5,41.1  c-0.8,0.8-1.5,2.2-1.5,3.4c-0.1,6.8-0.2,13.7,0,20.5c0,1.6,0.8,3.6,1.9,4.7c13.8,14.1,27.6,28,41.5,41.9c0.7,0.7,1.9,1.2,2.9,1.3  c6.9,0.1,13.9,0.2,20.8,0c1.6,0,3.5-0.8,4.7-1.9c14-13.7,27.9-27.5,41.7-41.3c0.8-0.8,1.4-2.2,1.4-3.4c0.1-6.5,0-12.9,0.1-19.4  c0.1-2.8-0.9-4.8-2.8-6.7c-11.1-11.1-22.5-22-33.2-33.6C165.6,94.8,159.7,90,152.1,92.5z"/></g><g/><g/><g/><g/><g/><g/></svg>